<svg width="128" height="72" viewBox="0 0 128 72" fill="none" xmlns="http://www.w3.org/2000/svg">
<path d="M30.2621 72V0H65.3135V4.07812H35.4172V33.9258H65.3135V38.0039H35.4172V67.9219H65.3135V72H30.2621Z" fill="white"/>
<path d="M52.5971 18.5114C52.1573 14.1705 50.0135 10.6591 46.1655 7.97727C42.3451 5.29545 37.3977 3.95455 31.3235 3.95455C27.2282 3.95455 23.5864 4.57955 20.3981 5.82955C17.2099 7.07955 14.7087 8.78409 12.8947 10.9432C11.0807 13.1023 10.1736 15.5795 10.1736 18.375C10.1736 20.1705 10.5859 21.7955 11.4105 23.25C12.2625 24.6818 13.4581 25.9659 14.9973 27.1023C16.5365 28.2159 18.3642 29.1932 20.4806 30.0341C22.597 30.875 24.9332 31.6136 27.4893 32.25L36.7244 34.5C39.8852 35.2955 42.7986 36.2159 45.4647 37.2614C48.1582 38.3068 50.4944 39.5568 52.4734 41.0114C54.4798 42.4432 56.0327 44.125 57.1321 46.0568C58.259 47.9886 58.8225 50.2159 58.8225 52.7386C58.8225 56.4205 57.6681 59.7159 55.3593 62.625C53.0781 65.5341 49.8211 67.8295 45.5883 69.5114C41.3831 71.1704 36.422 72 30.7051 72C25.263 72 20.5218 71.2386 16.4815 69.7159C12.4687 68.1932 9.29411 66.0795 6.95787 63.375C4.62163 60.6477 3.30234 57.5114 3 53.9659H8.27716C8.55201 56.8523 9.66516 59.3523 11.6166 61.4659C13.5955 63.5568 16.2204 65.1704 19.4911 66.3068C22.7619 67.4432 26.4999 68.0114 30.7051 68.0114C35.2402 68.0114 39.2393 67.375 42.7024 66.1023C46.1655 64.8068 48.8728 63.0114 50.8243 60.7159C52.7757 58.4205 53.7514 55.75 53.7514 52.7045C53.7514 50.25 53.0506 48.1477 51.6488 46.3977C50.2471 44.6477 48.1719 43.1364 45.4234 41.8636C42.7024 40.5909 39.3217 39.4545 35.2814 38.4545L25.4279 36C18.8315 34.3409 13.7879 32.0795 10.2973 29.2159C6.83419 26.3523 5.10262 22.7841 5.10262 18.5114C5.10262 14.9205 6.257 11.7386 8.56576 8.96591C10.8745 6.17045 14.0078 3.97727 17.9657 2.38636C21.9511 0.795455 26.3212 0 31.3235 0C36.3533 0 40.9158 0.806819 44.7638 2.42045C48.6117 4.01136 51.6626 6.20455 53.9164 9C56.1701 11.7727 57.4207 14.9432 57.6681 18.5114H52.5971Z" fill="white"/>
<path d="M61.7755 0H66.5999L94.5884 65.6719H95.0851L123.074 0H127.898V72H123.641V10.4414H123.215L96.9297 72H92.7438L66.458 10.4414H66.0323V72H61.7755V0Z" fill="white"/>
<path d="M107.327 42.7119H125.694" stroke="white" stroke-width="3"/>
<path d="M27.2621 72V0H62.3135V4.07812H32.4172V33.9258H62.3135V38.0039H32.4172V67.9219H62.3135V72H27.2621Z" fill="white"/>
<path d="M49.5971 18.5114C49.1573 14.1705 47.0135 10.6591 43.1655 7.97727C39.3451 5.29545 34.3977 3.95455 28.3235 3.95455C24.2282 3.95455 20.5864 4.57955 17.3981 5.82955C14.2099 7.07955 11.7087 8.78409 9.89468 10.9432C8.08065 13.1023 7.17364 15.5795 7.17364 18.375C7.17364 20.1705 7.58592 21.7955 8.41048 23.25C9.26252 24.6818 10.4581 25.9659 11.9973 27.1023C13.5365 28.2159 15.3642 29.1932 17.4806 30.0341C19.597 30.875 21.9332 31.6136 24.4893 32.25L33.7244 34.5C36.8852 35.2955 39.7986 36.2159 42.4647 37.2614C45.1582 38.3068 47.4944 39.5568 49.4734 41.0114C51.4798 42.4432 53.0327 44.125 54.1321 46.0568C55.259 47.9886 55.8225 50.2159 55.8225 52.7386C55.8225 56.4205 54.6681 59.7159 52.3593 62.625C50.0781 65.5341 46.8211 67.8295 42.5883 69.5114C38.3831 71.1704 33.422 72 27.7051 72C22.263 72 17.5218 71.2386 13.4815 69.7159C9.46865 68.1932 6.29411 66.0795 3.95787 63.375C1.62163 60.6477 0.302337 57.5114 0 53.9659H5.27716C5.55201 56.8523 6.66516 59.3523 8.61661 61.4659C10.5955 63.5568 13.2204 65.1704 16.4911 66.3068C19.7619 67.4432 23.4999 68.0114 27.7051 68.0114C32.2402 68.0114 36.2393 67.375 39.7024 66.1023C43.1655 64.8068 45.8728 63.0114 47.8243 60.7159C49.7757 58.4205 50.7514 55.75 50.7514 52.7045C50.7514 50.25 50.0506 48.1477 48.6488 46.3977C47.2471 44.6477 45.1719 43.1364 42.4234 41.8636C39.7024 40.5909 36.3217 39.4545 32.2814 38.4545L22.4279 36C15.8315 34.3409 10.7879 32.0795 7.29732 29.2159C3.83419 26.3523 2.10262 22.7841 2.10262 18.5114C2.10262 14.9205 3.257 11.7386 5.56576 8.96591C7.87451 6.17045 11.0078 3.97727 14.9657 2.38636C18.9511 0.795455 23.3212 0 28.3235 0C33.3533 0 37.9158 0.806819 41.7638 2.42045C45.6117 4.01136 48.6626 6.20455 50.9164 9C53.1701 11.7727 54.4207 14.9432 54.6681 18.5114H49.5971Z" fill="white"/>
<path d="M58.7755 0H63.5999L91.5884 65.6719H92.0851L120.074 0H124.898V72H120.641V10.4414H120.215L93.9297 72H89.7438L63.458 10.4414H63.0323V72H58.7755V0Z" fill="white"/>
<path d="M104.327 42.7119H122.694" stroke="white" stroke-width="3"/>
</svg>
